<svg xmlns="http://www.w3.org/2000/svg"  viewBox="0 0 64 64" width="64px" height="64px"><linearGradient id="TsnWEvm86BlcH1bFFHnMHa" x1="32" x2="32" y1="9.083" y2="54.676" gradientUnits="userSpaceOnUse" spreadMethod="reflect"><stop offset="0" stop-color="#1a6dff"/><stop offset="1" stop-color="#c822ff"/></linearGradient><path fill="url(#TsnWEvm86BlcH1bFFHnMHa)" d="M50,55H14c-2.757,0-5-2.243-5-5V14c0-2.757,2.243-5,5-5h36c2.757,0,5,2.243,5,5v36 C55,52.757,52.757,55,50,55z M14,11c-1.654,0-3,1.346-3,3v36c0,1.654,1.346,3,3,3h36c1.654,0,3-1.346,3-3V14c0-1.654-1.346-3-3-3H14 z"/><linearGradient id="TsnWEvm86BlcH1bFFHnMHb" x1="24.5" x2="24.5" y1="21" y2="44" gradientUnits="userSpaceOnUse" spreadMethod="reflect"><stop offset="0" stop-color="#6dc7ff"/><stop offset="1" stop-color="#e6abff"/></linearGradient><path fill="url(#TsnWEvm86BlcH1bFFHnMHb)" d="M18,21c-0.552,0-1,0.448-1,1v21c0,0.55,0.45,1,1,1h10c2.209,0,4-1.791,4-4V25 c0-2.209-1.791-4-4-4H18z M27,40h-6V25h6c0.552,0,1,0.448,1,1v13C28,39.552,27.552,40,27,40z"/><linearGradient id="TsnWEvm86BlcH1bFFHnMHc" x1="41.5" x2="41.5" y1="26" y2="44" gradientUnits="userSpaceOnUse" spreadMethod="reflect"><stop offset="0" stop-color="#6dc7ff"/><stop offset="1" stop-color="#e6abff"/></linearGradient><path fill="url(#TsnWEvm86BlcH1bFFHnMHc)" d="M48,43V27c0-0.552-0.448-1-1-1h-2c-0.552,0-1,0.448-1,1v9.792L43.125,35 c-0.676-1.333-2.557-1.334-3.25,0L39,36.792V27c0-0.552-0.448-1-1-1h-2c-0.552,0-1,0.448-1,1v16c0,0.552,0.448,1,1,1h2.138 c0.353,0,0.675-0.183,0.832-0.472l2.53-4.668l2.53,4.668C44.187,43.817,44.509,44,44.862,44H47C47.552,44,48,43.552,48,43z"/></svg>